<mxfile host="app.diagrams.net" modified="2024-03-20T23:16:55.079Z" agent="Mozilla/5.0 (Windows NT 10.0; Win64; x64) AppleWebKit/537.36 (KHTML, like Gecko) Chrome/122.0.0.0 Safari/537.36" etag="CEG7oAeS8NfVxPRifnX7" version="21.6.5" type="device">
  <diagram id="C5RBs43oDa-KdzZeNtuy" name="Page-1">
    <mxGraphModel dx="2791" dy="2051" grid="1" gridSize="10" guides="1" tooltips="1" connect="1" arrows="1" fold="1" page="1" pageScale="1" pageWidth="827" pageHeight="1169" math="0" shadow="0">
      <root>
        <mxCell id="WIyWlLk6GJQsqaUBKTNV-0" />
        <mxCell id="WIyWlLk6GJQsqaUBKTNV-1" parent="WIyWlLk6GJQsqaUBKTNV-0" />
        <mxCell id="OYyFW5qYjDA_U_2kRjRC-1" style="edgeStyle=orthogonalEdgeStyle;rounded=0;orthogonalLoop=1;jettySize=auto;html=1;exitX=0.25;exitY=1;exitDx=0;exitDy=0;" parent="WIyWlLk6GJQsqaUBKTNV-1" source="8ujiRsxlkH-QBAE6qNTh-2" target="OYyFW5qYjDA_U_2kRjRC-0" edge="1">
          <mxGeometry relative="1" as="geometry" />
        </mxCell>
        <mxCell id="OYyFW5qYjDA_U_2kRjRC-3" style="edgeStyle=orthogonalEdgeStyle;rounded=0;orthogonalLoop=1;jettySize=auto;html=1;" parent="WIyWlLk6GJQsqaUBKTNV-1" source="8ujiRsxlkH-QBAE6qNTh-2" target="OYyFW5qYjDA_U_2kRjRC-2" edge="1">
          <mxGeometry relative="1" as="geometry" />
        </mxCell>
        <mxCell id="OYyFW5qYjDA_U_2kRjRC-5" style="edgeStyle=orthogonalEdgeStyle;rounded=0;orthogonalLoop=1;jettySize=auto;html=1;exitX=0.75;exitY=1;exitDx=0;exitDy=0;" parent="WIyWlLk6GJQsqaUBKTNV-1" source="8ujiRsxlkH-QBAE6qNTh-2" target="OYyFW5qYjDA_U_2kRjRC-4" edge="1">
          <mxGeometry relative="1" as="geometry" />
        </mxCell>
        <mxCell id="OYyFW5qYjDA_U_2kRjRC-8" style="rounded=0;orthogonalLoop=1;jettySize=auto;html=1;" parent="WIyWlLk6GJQsqaUBKTNV-1" source="8ujiRsxlkH-QBAE6qNTh-2" target="OYyFW5qYjDA_U_2kRjRC-6" edge="1">
          <mxGeometry relative="1" as="geometry">
            <Array as="points">
              <mxPoint x="210" y="-110" />
            </Array>
          </mxGeometry>
        </mxCell>
        <mxCell id="n_hmJOZrvF1dUMTtt2SE-5" style="edgeStyle=orthogonalEdgeStyle;rounded=0;orthogonalLoop=1;jettySize=auto;html=1;dashed=1;exitX=0;exitY=0.75;exitDx=0;exitDy=0;" parent="WIyWlLk6GJQsqaUBKTNV-1" source="8ujiRsxlkH-QBAE6qNTh-2" target="OYyFW5qYjDA_U_2kRjRC-12" edge="1">
          <mxGeometry relative="1" as="geometry" />
        </mxCell>
        <mxCell id="n_hmJOZrvF1dUMTtt2SE-6" style="edgeStyle=orthogonalEdgeStyle;rounded=0;orthogonalLoop=1;jettySize=auto;html=1;dashed=1;exitX=-0.001;exitY=0.38;exitDx=0;exitDy=0;exitPerimeter=0;" parent="WIyWlLk6GJQsqaUBKTNV-1" source="8ujiRsxlkH-QBAE6qNTh-2" target="OYyFW5qYjDA_U_2kRjRC-11" edge="1">
          <mxGeometry relative="1" as="geometry" />
        </mxCell>
        <mxCell id="8ujiRsxlkH-QBAE6qNTh-2" value="Asn1DecodedDataRouter.java" style="rounded=0;whiteSpace=wrap;html=1;fillColor=#dae8fc;strokeColor=#6c8ebf;" parent="WIyWlLk6GJQsqaUBKTNV-1" vertex="1">
          <mxGeometry x="-45" y="-170" width="170" height="60" as="geometry" />
        </mxCell>
        <mxCell id="gxxZRGfVhdAJ79STQYsQ-20" style="edgeStyle=orthogonalEdgeStyle;rounded=0;orthogonalLoop=1;jettySize=auto;html=1;entryX=0;entryY=0.5;entryDx=0;entryDy=0;" parent="WIyWlLk6GJQsqaUBKTNV-1" source="gxxZRGfVhdAJ79STQYsQ-5" target="gxxZRGfVhdAJ79STQYsQ-19" edge="1">
          <mxGeometry relative="1" as="geometry" />
        </mxCell>
        <mxCell id="gxxZRGfVhdAJ79STQYsQ-5" value="ACM (ADM)" style="shape=process;whiteSpace=wrap;html=1;backgroundOutline=1;fillColor=#d5e8d4;strokeColor=#82b366;" parent="WIyWlLk6GJQsqaUBKTNV-1" vertex="1">
          <mxGeometry x="-255" y="-430" width="120" height="60" as="geometry" />
        </mxCell>
        <mxCell id="_VHhroGQ1N4wH_tI7Nl9-2" style="edgeStyle=orthogonalEdgeStyle;rounded=0;orthogonalLoop=1;jettySize=auto;html=1;" parent="WIyWlLk6GJQsqaUBKTNV-1" source="gxxZRGfVhdAJ79STQYsQ-9" target="gxxZRGfVhdAJ79STQYsQ-62" edge="1">
          <mxGeometry relative="1" as="geometry" />
        </mxCell>
        <mxCell id="gxxZRGfVhdAJ79STQYsQ-9" value="AsnCodecMessageServiceController.java" style="rounded=0;whiteSpace=wrap;html=1;fillColor=#dae8fc;strokeColor=#6c8ebf;" parent="WIyWlLk6GJQsqaUBKTNV-1" vertex="1">
          <mxGeometry x="-485" y="-644" width="230" height="60" as="geometry" />
        </mxCell>
        <mxCell id="gxxZRGfVhdAJ79STQYsQ-18" style="edgeStyle=orthogonalEdgeStyle;rounded=0;orthogonalLoop=1;jettySize=auto;html=1;entryX=0;entryY=0.5;entryDx=0;entryDy=0;" parent="WIyWlLk6GJQsqaUBKTNV-1" source="gxxZRGfVhdAJ79STQYsQ-13" target="gxxZRGfVhdAJ79STQYsQ-5" edge="1">
          <mxGeometry relative="1" as="geometry" />
        </mxCell>
        <mxCell id="gxxZRGfVhdAJ79STQYsQ-13" value="Asn1DecoderInput" style="ellipse;whiteSpace=wrap;html=1;fillColor=#fff2cc;strokeColor=#d6b656;" parent="WIyWlLk6GJQsqaUBKTNV-1" vertex="1">
          <mxGeometry x="-430" y="-440" width="120" height="80" as="geometry" />
        </mxCell>
        <mxCell id="gxxZRGfVhdAJ79STQYsQ-116" style="edgeStyle=orthogonalEdgeStyle;rounded=0;orthogonalLoop=1;jettySize=auto;html=1;" parent="WIyWlLk6GJQsqaUBKTNV-1" source="gxxZRGfVhdAJ79STQYsQ-19" target="gxxZRGfVhdAJ79STQYsQ-105" edge="1">
          <mxGeometry relative="1" as="geometry" />
        </mxCell>
        <mxCell id="gxxZRGfVhdAJ79STQYsQ-19" value="Asn1DecoderOutput" style="ellipse;whiteSpace=wrap;html=1;fillColor=#fff2cc;strokeColor=#d6b656;" parent="WIyWlLk6GJQsqaUBKTNV-1" vertex="1">
          <mxGeometry x="-55" y="-440" width="120" height="80" as="geometry" />
        </mxCell>
        <mxCell id="gxxZRGfVhdAJ79STQYsQ-57" style="edgeStyle=orthogonalEdgeStyle;rounded=0;orthogonalLoop=1;jettySize=auto;html=1;entryX=0.5;entryY=0;entryDx=0;entryDy=0;" parent="WIyWlLk6GJQsqaUBKTNV-1" source="gxxZRGfVhdAJ79STQYsQ-58" target="gxxZRGfVhdAJ79STQYsQ-60" edge="1">
          <mxGeometry relative="1" as="geometry" />
        </mxCell>
        <mxCell id="gxxZRGfVhdAJ79STQYsQ-58" value="SpatReceiver.java" style="rounded=0;whiteSpace=wrap;html=1;fillColor=#dae8fc;strokeColor=#6c8ebf;" parent="WIyWlLk6GJQsqaUBKTNV-1" vertex="1">
          <mxGeometry x="-430" y="-860" width="120" height="60" as="geometry" />
        </mxCell>
        <mxCell id="_VHhroGQ1N4wH_tI7Nl9-1" style="edgeStyle=orthogonalEdgeStyle;rounded=0;orthogonalLoop=1;jettySize=auto;html=1;" parent="WIyWlLk6GJQsqaUBKTNV-1" source="gxxZRGfVhdAJ79STQYsQ-60" target="gxxZRGfVhdAJ79STQYsQ-9" edge="1">
          <mxGeometry relative="1" as="geometry" />
        </mxCell>
        <mxCell id="gxxZRGfVhdAJ79STQYsQ-60" value="OdeRawEncodedSPATJson" style="ellipse;whiteSpace=wrap;html=1;fillColor=#fff2cc;strokeColor=#d6b656;" parent="WIyWlLk6GJQsqaUBKTNV-1" vertex="1">
          <mxGeometry x="-455" y="-760" width="170" height="80" as="geometry" />
        </mxCell>
        <mxCell id="gxxZRGfVhdAJ79STQYsQ-65" style="edgeStyle=orthogonalEdgeStyle;rounded=0;orthogonalLoop=1;jettySize=auto;html=1;entryX=0.5;entryY=0;entryDx=0;entryDy=0;" parent="WIyWlLk6GJQsqaUBKTNV-1" source="gxxZRGfVhdAJ79STQYsQ-62" target="gxxZRGfVhdAJ79STQYsQ-13" edge="1">
          <mxGeometry relative="1" as="geometry" />
        </mxCell>
        <mxCell id="gxxZRGfVhdAJ79STQYsQ-62" value="Asn1DecodeSPATJSON.java" style="rounded=0;whiteSpace=wrap;html=1;fillColor=#dae8fc;strokeColor=#6c8ebf;" parent="WIyWlLk6GJQsqaUBKTNV-1" vertex="1">
          <mxGeometry x="-450" y="-540" width="160" height="60" as="geometry" />
        </mxCell>
        <mxCell id="gxxZRGfVhdAJ79STQYsQ-108" style="edgeStyle=orthogonalEdgeStyle;rounded=0;orthogonalLoop=1;jettySize=auto;html=1;entryX=0.5;entryY=0;entryDx=0;entryDy=0;exitX=0.5;exitY=1;exitDx=0;exitDy=0;" parent="WIyWlLk6GJQsqaUBKTNV-1" source="gxxZRGfVhdAJ79STQYsQ-105" target="8ujiRsxlkH-QBAE6qNTh-2" edge="1">
          <mxGeometry relative="1" as="geometry" />
        </mxCell>
        <mxCell id="gxxZRGfVhdAJ79STQYsQ-105" value="AsnCodecRouterServiceController.java" style="rounded=0;whiteSpace=wrap;html=1;fillColor=#dae8fc;strokeColor=#6c8ebf;" parent="WIyWlLk6GJQsqaUBKTNV-1" vertex="1">
          <mxGeometry x="-100" y="-300" width="210" height="60" as="geometry" />
        </mxCell>
        <mxCell id="_VHhroGQ1N4wH_tI7Nl9-0" style="rounded=0;orthogonalLoop=1;jettySize=auto;html=1;" parent="WIyWlLk6GJQsqaUBKTNV-1" source="jXXAGItoZEFWX7bIlFFn-11" target="gxxZRGfVhdAJ79STQYsQ-58" edge="1">
          <mxGeometry relative="1" as="geometry" />
        </mxCell>
        <mxCell id="j4C8-tte3wrm5SZAyJzM-5" style="rounded=0;orthogonalLoop=1;jettySize=auto;html=1;" parent="WIyWlLk6GJQsqaUBKTNV-1" source="jXXAGItoZEFWX7bIlFFn-11" target="j4C8-tte3wrm5SZAyJzM-0" edge="1">
          <mxGeometry relative="1" as="geometry" />
        </mxCell>
        <mxCell id="jXXAGItoZEFWX7bIlFFn-11" value="" style="ellipse;shape=cloud;whiteSpace=wrap;html=1;" parent="WIyWlLk6GJQsqaUBKTNV-1" vertex="1">
          <mxGeometry x="-430" y="-1040" width="120" height="80" as="geometry" />
        </mxCell>
        <mxCell id="_VHhroGQ1N4wH_tI7Nl9-4" value="" style="group" parent="WIyWlLk6GJQsqaUBKTNV-1" vertex="1" connectable="0">
          <mxGeometry x="180" y="-884" width="300" height="600" as="geometry" />
        </mxCell>
        <mxCell id="_VHhroGQ1N4wH_tI7Nl9-5" value="&lt;font style=&quot;font-size: 24px&quot;&gt;Submodule&lt;/font&gt;" style="shape=process;whiteSpace=wrap;html=1;backgroundOutline=1;fillColor=#d5e8d4;strokeColor=#82b366;labelBackgroundColor=none;" parent="_VHhroGQ1N4wH_tI7Nl9-4" vertex="1">
          <mxGeometry x="56.25" y="336.5853658536585" width="180" height="87.80487804878048" as="geometry" />
        </mxCell>
        <mxCell id="_VHhroGQ1N4wH_tI7Nl9-6" value="Key" style="swimlane;labelBackgroundColor=none;fontSize=18;" parent="_VHhroGQ1N4wH_tI7Nl9-4" vertex="1">
          <mxGeometry width="299.99999999999994" height="600" as="geometry" />
        </mxCell>
        <mxCell id="_VHhroGQ1N4wH_tI7Nl9-8" value="" style="endArrow=classic;html=1;rounded=0;labelBackgroundColor=none;" parent="_VHhroGQ1N4wH_tI7Nl9-6" edge="1">
          <mxGeometry width="50" height="50" relative="1" as="geometry">
            <mxPoint x="108.75" y="541.4634146341463" as="sourcePoint" />
            <mxPoint x="183.74999999999997" y="468.29268292682923" as="targetPoint" />
          </mxGeometry>
        </mxCell>
        <mxCell id="_VHhroGQ1N4wH_tI7Nl9-9" value="&lt;font style=&quot;font-size: 24px&quot;&gt;Kafka Topic&lt;/font&gt;" style="ellipse;whiteSpace=wrap;html=1;fillColor=#fff2cc;strokeColor=#d6b656;labelBackgroundColor=none;" parent="_VHhroGQ1N4wH_tI7Nl9-6" vertex="1">
          <mxGeometry x="56.25" y="175.60975609756096" width="180" height="117.07317073170731" as="geometry" />
        </mxCell>
        <mxCell id="_VHhroGQ1N4wH_tI7Nl9-10" value="&lt;font style=&quot;font-size: 24px&quot;&gt;ODE Java Class&lt;/font&gt;" style="rounded=1;whiteSpace=wrap;html=1;fillColor=#dae8fc;strokeColor=#6c8ebf;labelBackgroundColor=none;" parent="_VHhroGQ1N4wH_tI7Nl9-6" vertex="1">
          <mxGeometry x="48.13" y="58.54" width="196.25" height="87.8" as="geometry" />
        </mxCell>
        <mxCell id="OYyFW5qYjDA_U_2kRjRC-0" value="OdeDNMsgJson" style="ellipse;whiteSpace=wrap;html=1;fillColor=#fff2cc;strokeColor=#d6b656;" parent="WIyWlLk6GJQsqaUBKTNV-1" vertex="1">
          <mxGeometry x="-200" y="-40" width="120" height="80" as="geometry" />
        </mxCell>
        <mxCell id="OYyFW5qYjDA_U_2kRjRC-2" value="OdeSpatRxJson" style="ellipse;whiteSpace=wrap;html=1;fillColor=#fff2cc;strokeColor=#d6b656;" parent="WIyWlLk6GJQsqaUBKTNV-1" vertex="1">
          <mxGeometry x="-20" y="-40" width="120" height="80" as="geometry" />
        </mxCell>
        <mxCell id="OYyFW5qYjDA_U_2kRjRC-4" value="OdeSpatTxPojo" style="ellipse;whiteSpace=wrap;html=1;fillColor=#fff2cc;strokeColor=#d6b656;" parent="WIyWlLk6GJQsqaUBKTNV-1" vertex="1">
          <mxGeometry x="150" y="-40" width="120" height="80" as="geometry" />
        </mxCell>
        <mxCell id="n_hmJOZrvF1dUMTtt2SE-2" style="edgeStyle=orthogonalEdgeStyle;rounded=0;orthogonalLoop=1;jettySize=auto;html=1;dashed=1;" parent="WIyWlLk6GJQsqaUBKTNV-1" source="OYyFW5qYjDA_U_2kRjRC-6" target="n_hmJOZrvF1dUMTtt2SE-0" edge="1">
          <mxGeometry relative="1" as="geometry" />
        </mxCell>
        <mxCell id="waAwy8PdT1XQP8kkjFfq-7" style="rounded=0;orthogonalLoop=1;jettySize=auto;html=1;exitX=0;exitY=1;exitDx=0;exitDy=0;" parent="WIyWlLk6GJQsqaUBKTNV-1" source="OYyFW5qYjDA_U_2kRjRC-6" target="waAwy8PdT1XQP8kkjFfq-1" edge="1">
          <mxGeometry relative="1" as="geometry" />
        </mxCell>
        <mxCell id="OYyFW5qYjDA_U_2kRjRC-6" value="OdeSpatJson" style="ellipse;whiteSpace=wrap;html=1;fillColor=#fff2cc;strokeColor=#d6b656;" parent="WIyWlLk6GJQsqaUBKTNV-1" vertex="1">
          <mxGeometry x="315" y="-40" width="120" height="80" as="geometry" />
        </mxCell>
        <mxCell id="OYyFW5qYjDA_U_2kRjRC-11" value="OdeSpatPojo" style="ellipse;whiteSpace=wrap;html=1;fillColor=#fff2cc;strokeColor=#d6b656;" parent="WIyWlLk6GJQsqaUBKTNV-1" vertex="1">
          <mxGeometry x="-510" y="-40" width="120" height="80" as="geometry" />
        </mxCell>
        <mxCell id="OYyFW5qYjDA_U_2kRjRC-12" value="OdeSpatRxPojo" style="ellipse;whiteSpace=wrap;html=1;fillColor=#fff2cc;strokeColor=#d6b656;" parent="WIyWlLk6GJQsqaUBKTNV-1" vertex="1">
          <mxGeometry x="-350" y="-40" width="120" height="80" as="geometry" />
        </mxCell>
        <mxCell id="OYyFW5qYjDA_U_2kRjRC-13" value="FilteredOdeSpatJson" style="ellipse;whiteSpace=wrap;html=1;fillColor=#fff2cc;strokeColor=#d6b656;" parent="WIyWlLk6GJQsqaUBKTNV-1" vertex="1">
          <mxGeometry x="640" y="-40" width="120" height="80" as="geometry" />
        </mxCell>
        <mxCell id="n_hmJOZrvF1dUMTtt2SE-4" style="edgeStyle=orthogonalEdgeStyle;rounded=0;orthogonalLoop=1;jettySize=auto;html=1;dashed=1;" parent="WIyWlLk6GJQsqaUBKTNV-1" source="n_hmJOZrvF1dUMTtt2SE-0" target="OYyFW5qYjDA_U_2kRjRC-13" edge="1">
          <mxGeometry relative="1" as="geometry" />
        </mxCell>
        <mxCell id="n_hmJOZrvF1dUMTtt2SE-0" value="PPM (SPAT)" style="shape=process;whiteSpace=wrap;html=1;backgroundOutline=1;fillColor=#d5e8d4;strokeColor=#82b366;" parent="WIyWlLk6GJQsqaUBKTNV-1" vertex="1">
          <mxGeometry x="480" y="-30" width="120" height="60" as="geometry" />
        </mxCell>
        <mxCell id="Tbv0-RBwRGpsFKKv6rkh-2" value="message is decoded from Asn1.c" style="text;html=1;strokeColor=none;fillColor=none;align=center;verticalAlign=middle;whiteSpace=wrap;rounded=0;" parent="WIyWlLk6GJQsqaUBKTNV-1" vertex="1">
          <mxGeometry x="-250" y="-370" width="110" height="50" as="geometry" />
        </mxCell>
        <mxCell id="Tbv0-RBwRGpsFKKv6rkh-3" value="message is filtered/redacted" style="text;html=1;strokeColor=none;fillColor=none;align=center;verticalAlign=middle;whiteSpace=wrap;rounded=0;" parent="WIyWlLk6GJQsqaUBKTNV-1" vertex="1">
          <mxGeometry x="487.5" y="-80" width="105" height="50" as="geometry" />
        </mxCell>
        <mxCell id="Tbv0-RBwRGpsFKKv6rkh-4" value="&lt;font style=&quot;font-size: 24px&quot;&gt;Data Flow&lt;/font&gt;" style="text;html=1;strokeColor=none;fillColor=none;align=center;verticalAlign=middle;whiteSpace=wrap;rounded=0;labelBackgroundColor=none;" parent="WIyWlLk6GJQsqaUBKTNV-1" vertex="1">
          <mxGeometry x="270" y="-342.53999999999996" width="120" height="43.9" as="geometry" />
        </mxCell>
        <mxCell id="Tbv0-RBwRGpsFKKv6rkh-5" value="messages are in JSON format" style="text;html=1;strokeColor=none;fillColor=none;align=center;verticalAlign=middle;whiteSpace=wrap;rounded=0;" parent="WIyWlLk6GJQsqaUBKTNV-1" vertex="1">
          <mxGeometry x="-192.5" y="40" width="105" height="50" as="geometry" />
        </mxCell>
        <mxCell id="Tbv0-RBwRGpsFKKv6rkh-6" value="messages are in JSON format" style="text;html=1;strokeColor=none;fillColor=none;align=center;verticalAlign=middle;whiteSpace=wrap;rounded=0;" parent="WIyWlLk6GJQsqaUBKTNV-1" vertex="1">
          <mxGeometry x="-12.5" y="40" width="105" height="50" as="geometry" />
        </mxCell>
        <mxCell id="Tbv0-RBwRGpsFKKv6rkh-7" value="messages are in POJO format" style="text;html=1;strokeColor=none;fillColor=none;align=center;verticalAlign=middle;whiteSpace=wrap;rounded=0;" parent="WIyWlLk6GJQsqaUBKTNV-1" vertex="1">
          <mxGeometry x="157.5" y="40" width="105" height="50" as="geometry" />
        </mxCell>
        <mxCell id="Tbv0-RBwRGpsFKKv6rkh-8" value="messages are in JSON format" style="text;html=1;strokeColor=none;fillColor=none;align=center;verticalAlign=middle;whiteSpace=wrap;rounded=0;" parent="WIyWlLk6GJQsqaUBKTNV-1" vertex="1">
          <mxGeometry x="330" y="-90" width="105" height="50" as="geometry" />
        </mxCell>
        <mxCell id="Tbv0-RBwRGpsFKKv6rkh-9" value="messages are in POJO format" style="text;html=1;strokeColor=none;fillColor=none;align=center;verticalAlign=middle;whiteSpace=wrap;rounded=0;" parent="WIyWlLk6GJQsqaUBKTNV-1" vertex="1">
          <mxGeometry x="-342.5" y="40" width="105" height="50" as="geometry" />
        </mxCell>
        <mxCell id="Tbv0-RBwRGpsFKKv6rkh-10" value="messages are in POJO format" style="text;html=1;strokeColor=none;fillColor=none;align=center;verticalAlign=middle;whiteSpace=wrap;rounded=0;" parent="WIyWlLk6GJQsqaUBKTNV-1" vertex="1">
          <mxGeometry x="-502.5" y="40" width="105" height="50" as="geometry" />
        </mxCell>
        <mxCell id="Tbv0-RBwRGpsFKKv6rkh-11" value="messages are in JSON format and filtered" style="text;html=1;strokeColor=none;fillColor=none;align=center;verticalAlign=middle;whiteSpace=wrap;rounded=0;" parent="WIyWlLk6GJQsqaUBKTNV-1" vertex="1">
          <mxGeometry x="647.5" y="-90" width="105" height="50" as="geometry" />
        </mxCell>
        <mxCell id="waAwy8PdT1XQP8kkjFfq-0" style="edgeStyle=orthogonalEdgeStyle;rounded=0;orthogonalLoop=1;jettySize=auto;html=1;" parent="WIyWlLk6GJQsqaUBKTNV-1" source="waAwy8PdT1XQP8kkjFfq-1" target="waAwy8PdT1XQP8kkjFfq-6" edge="1">
          <mxGeometry relative="1" as="geometry" />
        </mxCell>
        <mxCell id="waAwy8PdT1XQP8kkjFfq-1" value="GeoJSON Converter" style="shape=process;whiteSpace=wrap;html=1;backgroundOutline=1;fillColor=#d5e8d4;strokeColor=#82b366;" parent="WIyWlLk6GJQsqaUBKTNV-1" vertex="1">
          <mxGeometry x="135" y="100" width="120" height="60" as="geometry" />
        </mxCell>
        <mxCell id="waAwy8PdT1XQP8kkjFfq-2" style="edgeStyle=none;rounded=0;orthogonalLoop=1;jettySize=auto;html=1;" parent="WIyWlLk6GJQsqaUBKTNV-1" source="waAwy8PdT1XQP8kkjFfq-3" target="waAwy8PdT1XQP8kkjFfq-4" edge="1">
          <mxGeometry relative="1" as="geometry" />
        </mxCell>
        <mxCell id="waAwy8PdT1XQP8kkjFfq-3" value="Conflict Monitor" style="shape=process;whiteSpace=wrap;html=1;backgroundOutline=1;fillColor=#d5e8d4;strokeColor=#82b366;" parent="WIyWlLk6GJQsqaUBKTNV-1" vertex="1">
          <mxGeometry x="300" y="200" width="120" height="60" as="geometry" />
        </mxCell>
        <mxCell id="waAwy8PdT1XQP8kkjFfq-4" value="CM Output Topics" style="ellipse;whiteSpace=wrap;html=1;fillColor=#f8cecc;strokeColor=#b85450;" parent="WIyWlLk6GJQsqaUBKTNV-1" vertex="1">
          <mxGeometry x="470" y="190" width="120" height="80" as="geometry" />
        </mxCell>
        <mxCell id="waAwy8PdT1XQP8kkjFfq-5" style="edgeStyle=orthogonalEdgeStyle;rounded=0;orthogonalLoop=1;jettySize=auto;html=1;" parent="WIyWlLk6GJQsqaUBKTNV-1" source="waAwy8PdT1XQP8kkjFfq-6" target="waAwy8PdT1XQP8kkjFfq-3" edge="1">
          <mxGeometry relative="1" as="geometry" />
        </mxCell>
        <mxCell id="waAwy8PdT1XQP8kkjFfq-6" value="ProcessedOdeSpatJson" style="ellipse;whiteSpace=wrap;html=1;fillColor=#fff2cc;strokeColor=#d6b656;" parent="WIyWlLk6GJQsqaUBKTNV-1" vertex="1">
          <mxGeometry x="125" y="190" width="140" height="80" as="geometry" />
        </mxCell>
        <mxCell id="IG-z-BRtjS6SDwSW-aUZ-1" style="edgeStyle=orthogonalEdgeStyle;rounded=0;orthogonalLoop=1;jettySize=auto;html=1;exitX=0;exitY=0;exitDx=70;exitDy=80;exitPerimeter=0;entryX=0.5;entryY=0;entryDx=0;entryDy=0;" edge="1" parent="WIyWlLk6GJQsqaUBKTNV-1" source="j4C8-tte3wrm5SZAyJzM-0" target="j4C8-tte3wrm5SZAyJzM-2">
          <mxGeometry relative="1" as="geometry" />
        </mxCell>
        <mxCell id="j4C8-tte3wrm5SZAyJzM-0" value="offloaded files" style="shape=cube;whiteSpace=wrap;html=1;boundedLbl=1;backgroundOutline=1;darkOpacity=0.05;darkOpacity2=0.1;" parent="WIyWlLk6GJQsqaUBKTNV-1" vertex="1">
          <mxGeometry x="-195" y="-980" width="120" height="80" as="geometry" />
        </mxCell>
        <mxCell id="j4C8-tte3wrm5SZAyJzM-2" value="FileUploadController.java" style="rounded=0;whiteSpace=wrap;html=1;fillColor=#dae8fc;strokeColor=#6c8ebf;" parent="WIyWlLk6GJQsqaUBKTNV-1" vertex="1">
          <mxGeometry x="-195" y="-860" width="140" height="60" as="geometry" />
        </mxCell>
        <mxCell id="j4C8-tte3wrm5SZAyJzM-3" style="rounded=0;orthogonalLoop=1;jettySize=auto;html=1;" parent="WIyWlLk6GJQsqaUBKTNV-1" source="j4C8-tte3wrm5SZAyJzM-2" target="j4C8-tte3wrm5SZAyJzM-4" edge="1">
          <mxGeometry relative="1" as="geometry" />
        </mxCell>
        <mxCell id="IG-z-BRtjS6SDwSW-aUZ-0" style="edgeStyle=orthogonalEdgeStyle;rounded=0;orthogonalLoop=1;jettySize=auto;html=1;exitX=0;exitY=0.5;exitDx=0;exitDy=0;" edge="1" parent="WIyWlLk6GJQsqaUBKTNV-1" source="j4C8-tte3wrm5SZAyJzM-4">
          <mxGeometry relative="1" as="geometry">
            <mxPoint x="-280" y="-720" as="targetPoint" />
          </mxGeometry>
        </mxCell>
        <mxCell id="j4C8-tte3wrm5SZAyJzM-4" value="LogFileToAsn1CodecPublisher,java" style="rounded=0;whiteSpace=wrap;html=1;fillColor=#dae8fc;strokeColor=#6c8ebf;" parent="WIyWlLk6GJQsqaUBKTNV-1" vertex="1">
          <mxGeometry x="-230" y="-750" width="210" height="60" as="geometry" />
        </mxCell>
        <mxCell id="j4C8-tte3wrm5SZAyJzM-9" value="&lt;span&gt;message arrives encoded with Asn1.c&lt;/span&gt;" style="text;html=1;strokeColor=none;fillColor=none;align=center;verticalAlign=middle;whiteSpace=wrap;rounded=0;" parent="WIyWlLk6GJQsqaUBKTNV-1" vertex="1">
          <mxGeometry x="-320" y="-800" width="90" height="60" as="geometry" />
        </mxCell>
      </root>
    </mxGraphModel>
  </diagram>
</mxfile>
